HIERARCHY
ROOT Hips
{
	OFFSET 0.0000 0.0000 0.0000
	CHANNELS 6 Xposition Yposition Zposition Zrotation Xrotation Yrotation
	JOINT Ab
	{
		OFFSET -0.0000 8.1305 -0.0000
		CHANNELS 3 Zrotation Xrotation Yrotation
		JOINT Chest
		{
			OFFSET -0.0000 26.2902 -0.0000
			CHANNELS 3 Zrotation Xrotation Yrotation
			JOINT Neck
			{
				OFFSET -0.0000 26.2902 0.0000
				CHANNELS 3 Zrotation Xrotation Yrotation
				JOINT Head
				{
					OFFSET -0.0000 10.8167 0.0000
					CHANNELS 3 Zrotation Xrotation Yrotation
					End Site
					{
						OFFSET -0.0000 16.7167 0.0000
					}
				}
			}
			JOINT LeftCollar
			{
				OFFSET -0.0000 26.2902 0.0000
				CHANNELS 3 Zrotation Xrotation Yrotation
				JOINT LeftShoulder
				{
					OFFSET 19.6667 -0.0000 0.0000
					CHANNELS 3 Zrotation Xrotation Yrotation
					JOINT LeftElbow
					{
						OFFSET 27.2190 0.0000 0.0000
						CHANNELS 3 Zrotation Xrotation Yrotation
						JOINT LeftWrist
						{
							OFFSET 30.7431 0.0000 0.0000
							CHANNELS 3 Zrotation Xrotation Yrotation
							End Site
							{
								OFFSET 0.0000 -14.7500 0.0000
							}
						}
					}
				}
			}
			JOINT RightCollar
			{
				OFFSET -0.0000 26.2902 0.0000
				CHANNELS 3 Zrotation Xrotation Yrotation
				JOINT RightShoulder
				{
					OFFSET -19.6667 0.0000 0.0000
					CHANNELS 3 Zrotation Xrotation Yrotation
					JOINT RightElbow
					{
						OFFSET -27.2190 0.0000 0.0000
						CHANNELS 3 Zrotation Xrotation Yrotation
						JOINT RightWrist
						{
							OFFSET -30.7431 0.0000 0.0000
							CHANNELS 3 Zrotation Xrotation Yrotation
							End Site
							{
								OFFSET -0.0000 -14.7500 0.0000
							}
						}
					}
				}
			}
		}
	}
	JOINT LeftHip
	{
		OFFSET 11.8000 0.0000 0.0000
		CHANNELS 3 Zrotation Xrotation Yrotation
		JOINT LeftKnee
		{
			OFFSET -0.0000 -39.7832 0.0000
			CHANNELS 3 Zrotation Xrotation Yrotation
			JOINT LeftAnkle
			{
				OFFSET -0.0000 -41.7317 0.0000
				CHANNELS 3 Zrotation Xrotation Yrotation
				End Site
				{
					OFFSET -0.0000 -4.9167 16.7167
				}
			}
		}
	}
	JOINT RightHip
	{
		OFFSET -11.8000 0.0000 0.0000
		CHANNELS 3 Zrotation Xrotation Yrotation
		JOINT RightKnee
		{
			OFFSET -0.0000 -39.7832 0.0000
			CHANNELS 3 Zrotation Xrotation Yrotation
			JOINT RightAnkle
			{
				OFFSET -0.0000 -41.7317 0.0000
				CHANNELS 3 Zrotation Xrotation Yrotation
				End Site
				{
					OFFSET -0.0000 -4.9167 16.7167
				}
			}
		}
	}
}
MOTION
Frames: 8
Frame Time: 0.010000
-18.5298 96.9791 175.9863 358.4654 357.2417 181.5168 357.5249 348.0455 0.0092 2.7601 10.5068 0.0132 357.8156 357.8946 0.2749 358.9719 4.9372 0.3547 339.8734 357.4054 14.5792 317.7221 58.7338 340.3127 9.4439 357.1696 326.6405 88.5354 357.1633 347.0382 27.0620 355.8275 342.8163 46.0612 46.4780 3.7418 340.4697 354.5167 31.0664 270.5990 354.5997 10.3985 356.2040 3.0267 358.9819 357.7961 5.9748 5.0456 353.9025 352.0226 13.7143 358.3745 5.7993 11.8330 6.1842 5.8358 10.8896 349.0432 344.1238 311.0519 
-18.5535 96.9761 175.9721 358.4669 357.2174 181.5098 357.5199 348.0488 0.0106 2.7509 10.5218 0.0122 357.8288 357.9032 0.2760 358.9591 4.9683 0.3616 339.8832 357.4035 14.5763 317.7364 58.7571 340.2699 9.4931 357.1727 326.6745 88.6505 357.1339 347.1421 27.0556 355.8398 342.8052 46.0565 46.5179 3.7863 340.4281 354.5156 31.0749 270.7758 354.5473 10.0450 356.1903 3.0142 358.9675 357.7913 5.9703 5.0736 353.9365 352.0242 13.7170 358.3578 5.7665 11.8281 6.1943 5.8650 10.8684 349.0126 344.1276 311.0803 
-18.5787 96.9730 175.9592 358.4688 357.1899 181.5049 357.5142 348.0524 0.0079 2.7447 10.5376 0.0105 357.8385 357.9119 0.2810 358.9411 4.9950 0.3654 339.8946 357.3961 14.5740 317.7050 58.7546 340.2892 9.4990 357.1453 326.6829 88.7111 357.1259 347.1308 27.0460 355.8290 342.8133 46.0715 46.5468 3.7827 340.3911 354.4974 31.0831 270.9367 354.5123 9.9318 356.1738 2.9928 358.9527 357.7936 5.9784 5.0698 353.9644 352.0158 13.7291 358.3403 5.7351 11.8398 6.2035 5.8854 10.8508 349.0204 344.1152 311.0967 
-18.6031 96.9699 175.9447 358.4730 357.1651 181.4986 357.5061 348.0515 0.0080 2.7408 10.5642 0.0130 357.8971 357.8985 0.2757 358.8455 5.0566 0.3684 339.9005 357.4103 14.5653 317.7024 58.7439 340.2900 9.4705 357.1518 326.6771 88.7913 357.1174 347.1748 27.0489 355.8375 342.8225 46.0644 46.5513 3.7870 340.3981 354.4924 31.1052 270.9625 354.5243 9.9360 356.1666 2.9778 358.9286 357.7800 5.9800 5.0803 353.8522 351.9977 13.7567 358.3276 5.7045 11.8515 6.2121 5.9115 10.8292 349.0194 344.1078 311.1322 
-18.6277 96.9652 175.9304 358.4779 357.1409 181.4896 357.4928 348.0603 0.0155 2.7509 10.5795 0.0155 357.9107 357.9024 0.2762 358.8175 5.0916 0.3681 339.9045 357.3981 14.5557 317.6795 58.7534 340.3076 9.5170 357.1411 326.6782 88.7519 357.1148 347.1692 27.0410 355.8367 342.8358 46.0790 46.5520 3.7701 340.3864 354.4883 31.1296 270.9422 354.5424 9.9004 356.1567 2.9622 358.9215 357.7764 5.9841 5.0817 353.9418 351.9926 13.7683 358.3125 5.6682 11.8400 6.2262 5.9512 10.8460 349.0199 344.0756 311.0999 
-18.6539 96.9624 175.9158 358.4826 357.1130 181.4801 357.4791 348.0600 0.0201 2.7564 10.6030 0.0193 357.9266 357.8975 0.2734 358.8035 5.1392 0.3647 339.8947 357.4062 14.5547 317.7397 58.7407 340.2570 9.4695 357.1593 326.6747 88.7517 357.1114 347.1270 27.0433 355.8530 342.8481 46.0781 46.5148 3.7666 340.4187 354.5073 31.1547 270.9416 354.5383 9.9455 356.1152 2.8737 358.9362 357.8323 6.1198 5.1247 353.9344 351.9098 13.6781 358.2952 5.6275 11.8058 6.2396 5.9929 10.8796 348.9458 344.0911 311.0756 
-18.6826 96.9583 175.9038 358.4821 357.0813 181.4736 357.4698 348.0672 0.0188 2.7438 10.6114 0.0238 357.9355 357.9129 0.2689 358.8200 5.1644 0.3570 339.8986 357.4056 14.5400 317.7350 58.7344 340.2655 9.4797 357.1510 326.6767 88.7057 357.1014 347.0754 27.0446 355.8389 342.8518 46.0834 46.5302 3.7727 340.3969 354.4797 31.1495 270.9844 354.5557 9.9499 356.0795 2.8139 358.9215 357.8592 6.1919 5.1570 353.9577 351.8760 13.6653 358.2699 5.5821 11.7792 6.2542 6.0335 10.9090 348.7975 344.1743 311.0691 
-18.7100 96.9535 175.8943 358.4901 357.0423 181.4673 357.4655 348.0690 0.0222 2.7380 10.6271 0.0236 357.9562 357.9057 0.2601 358.7964 5.2083 0.3510 339.8970 357.4156 14.5318 317.7479 58.7143 340.2575 9.4793 357.1567 326.6729 88.6079 357.0928 347.0066 27.0428 355.8420 342.8603 46.0770 46.5332 3.7804 340.4064 354.4930 31.1695 270.9908 354.5695 9.9401 356.0713 2.7785 358.9099 357.8564 6.1998 5.1362 353.9573 351.8476 13.6677 358.2523 5.5223 11.7586 6.2757 6.0823 10.9189 348.9320 344.0529 311.0812 
